<?xml version="1.0" encoding="UTF-8" standalone="no"?> <!-- Created with Vectornator for iOS (http://vectornator.io/) --><!DOCTYPE svg PUBLIC "-//W3C//DTD SVG 1.1//EN" "http://www.w3.org/Graphics/SVG/1.1/DTD/svg11.dtd">
<svg style="fill-rule:evenodd;clip-rule:evenodd;stroke-linecap:round;stroke-linejoin:round;" xmlns:vectornator="http://vectornator.io" xmlns:xlink="http://www.w3.org/1999/xlink" xmlns="http://www.w3.org/2000/svg" xml:space="preserve" version="1.1" viewBox="0 0 2224 1668">
<metadata>
<vectornator:setting key="DimensionsVisible" value="1"/>
<vectornator:setting key="New" value="1"/>
<vectornator:setting key="SnapToPoints" value="0"/>
<vectornator:setting key="GuidesVisible" value="1"/>
<vectornator:setting key="RulersVisible" value="1"/>
<vectornator:setting key="CMYKEnabledKey" value="0"/>
<vectornator:setting key="SnapToEdges" value="0"/>
<vectornator:setting key="DisplayWhiteBackground" value="0"/>
<vectornator:setting key="SnapToGuides" value="1"/>
<vectornator:setting key="GridSpacing" value="36"/>
<vectornator:setting key="Units" value="Pixels"/>
<vectornator:setting key="DynamicGuides" value="1"/>
<vectornator:setting key="SnapToGrid" value="1"/>
</metadata>
<defs/>
<g id="Layer 2" vectornator:layerName="Layer 2" visibility="hidden">
<path stroke="#ffffff" stroke-width="300" d="M-380.189-715.053L2727.97-715.053C2795.36-715.053+2849.99-650.14+2849.99-570.065L2849.99+2207.52C2849.99+2287.59+2795.36+2352.5+2727.97+2352.5L-380.189+2352.5C-447.576+2352.5-502.204+2287.59-502.204+2207.52L-502.204-570.065C-502.204-650.14-447.576-715.053-380.189-715.053Z" fill="#132539" stroke-linecap="round" opacity="1" stroke-linejoin="round"/>
</g>
<g id="Layer 1 copy" vectornator:layerName="Layer 1 copy">
<path stroke="#ffffff" stroke-width="300" d="M3.05772e-05+3.64506e-05L2224+3.64506e-05L2224+1668L3.05772e-05+1668L3.05772e-05+3.64506e-05Z" fill="#ffffff" stroke-linecap="butt" fill-opacity="0" opacity="0" stroke-linejoin="miter"/>
<path stroke="#ffffff" stroke-width="300" d="M230.079-32.689L1993.92-32.689C2151.08-32.689+2278.48+93.5231+2278.48+249.214L2278.48+1418.79C2278.48+1574.48+2151.08+1700.69+1993.92+1700.69L230.079+1700.69C72.9205+1700.69-54.4816+1574.48-54.4816+1418.79L-54.4816+249.214C-54.4816+93.5231+72.9205-32.689+230.079-32.689Z" fill="#ffffff" stroke-linecap="round" fill-opacity="0" opacity="1" stroke-linejoin="round"/>
</g>
<g id="Layer 1 copy copy" vectornator:layerName="Layer 1 copy copy" visibility="hidden">
<path stroke="#ffffff" stroke-width="300" d="M-85.2011-54.7701L2309.2-54.7701L2309.2+1722.77L-85.2011+1722.77L-85.2011-54.7701Z" fill="#ffffff" stroke-linecap="butt" fill-opacity="0" opacity="1" stroke-linejoin="miter"/>
<path stroke="#ffffff" stroke-width="300" d="M698.566+85.2141L1639.26+8.19788C2131.81-52.1956+2224+228.98+2224+591.997L2224+1025.07C2224+1441.16+2224+1568.53+1383.48+1568.53L666.857+1568.53C170.085+1568.53+0+1489.15+0+1009.29L0+559.025C0+145.058+313.832+127.493+698.566+85.2141Z" fill="#ffffff" stroke-linecap="round" fill-opacity="0" opacity="1" stroke-linejoin="round"/>
</g>
<g id="Layer 1 copy copy_2" vectornator:layerName="Layer 1 copy copy" visibility="hidden">
<path stroke="#ffffff" stroke-width="300" d="M-85.2011-54.7701L2309.2-54.7701L2309.2+1722.77L-85.2011+1722.77L-85.2011-54.7701Z" fill="#ffffff" stroke-linecap="butt" fill-opacity="0" opacity="1" stroke-linejoin="miter"/>
<path stroke="#ffffff" stroke-width="300" d="M722.943-18.1583L1324.18+100.798C1687.35+171.414+2260.09+28.3941+2271.63+464.681L2279.42+759.184C2290.96+1195.47+2258.69+1608.6+1416.53+1632.7L852.345+1648.85C200.264+1667.52-13.8522+1526.76-28.2462+982.482L-28.2462+400.345C-28.2462-18.1583+327.497-72.9284+722.943-18.1583Z" fill="#ffffff" stroke-linecap="round" fill-opacity="0" opacity="1" stroke-linejoin="round"/>
</g>
<g id="Layer 1 copy copy_3" vectornator:layerName="Layer 1 copy copy" visibility="hidden">
<path stroke="#ffffff" stroke-width="300" d="M-85.2011-54.7701L2309.2-54.7701L2309.2+1722.77L-85.2011+1722.77L-85.2011-54.7701Z" fill="#ffffff" stroke-linecap="butt" fill-opacity="0" opacity="1" stroke-linejoin="miter"/>
<path stroke="#ffffff" stroke-width="300" d="M512.607+117.846L919.646+126.562C1650.13+188.345+2309.2-147.826+2224+818.726L2184.37+1313.15C2164.38+1553.01+1790.05+1772.89+1297.61+1668L616.184+1587.54C203.694+1540.29+0+1507.59+0+973.348L0+642.629C0+304.641+72.8601+109.807+512.607+117.846Z" fill="#ffffff" stroke-linecap="round" fill-opacity="0" opacity="1" stroke-linejoin="round"/>
</g>
<g id="Layer 1 copy copy_4" vectornator:layerName="Layer 1 copy copy" visibility="hidden">
<path stroke="#ffffff" stroke-width="300" d="M-85.2011-54.7701L2309.2-54.7701L2309.2+1722.77L-85.2011+1722.77L-85.2011-54.7701Z" fill="#ffffff" stroke-linecap="butt" fill-opacity="0" opacity="1" stroke-linejoin="miter"/>
<path stroke="#ffffff" stroke-width="300" d="M598.257+0L1419.36+0C2024.46+0+2309.2+156.793+2224+818.726L2182.56+1134.41C2149.85+1319.76+2224+1722.77+1415.72+1668L598.257+1668C267.849+1668-85.2011+1579.61+0+916.356L56.5058+416.643C65.5915+189.501+267.849+0+598.257+0Z" fill="#ffffff" stroke-linecap="round" fill-opacity="0" opacity="1" stroke-linejoin="round"/>
</g>
<g id="Layer 1 copy copy_5" vectornator:layerName="Layer 1 copy copy" visibility="hidden">
<path stroke="#ffffff" stroke-width="300" d="M-85.2011-54.7701L2309.2-54.7701L2309.2+1722.77L-85.2011+1722.77L-85.2011-54.7701Z" fill="#ffffff" stroke-linecap="butt" fill-opacity="0" opacity="1" stroke-linejoin="miter"/>
<path stroke="#ffffff" stroke-width="300" d="M705.587+0L1245.8+60.1222C1580.47+102.592+2135.69-18.0223+2224+474.628L2271.87+1118.47C2271.87+1522.78+2168.25+1779.65+1388.5+1668L773.539+1604.32C313.212+1588.3-27.8406+1500.65-11.8193+1040.33L0.672888+795.321C16.6942+334.994+41.3592-54.7701+705.587+0Z" fill="#ffffff" stroke-linecap="round" fill-opacity="0" opacity="1" stroke-linejoin="round"/>
</g>
</svg>
